#!OML:ASF I:\golf\golf\golf 2\Subject 1\2002-09-07\Subject1.ASF
:FULLY-SPECIFIED
:DEGREES
437
root -4.75351 18.1893 -3.25209 -165.667 0.0734771 -174.326
lowerback -8.95533 9.1988 11.385
upperback -10.7888 14.3936 2.33312
thorax -4.81221 7.58979 -2.88581
lowerneck -15.6069 -13.8271 -3.02755
upperneck 10.6685 -17.937 -0.0638777
head 5.97698 -8.84264 -1.29907
rclavicle -8.36883e-014 -1.51076e-014
rhumerus 90.239 25.7865 -57.2619
rradius 53.3665
rwrist -10.046
rhand -47.0072 27.6662
rfingers 7.12502
rthumb -19.7143 -1.35412
lclavicle -8.36883e-014 -1.51076e-014
lhumerus 64.3094 6.36644 47.2715
lradius 50.1706
lwrist 26.8952
lhand -16.868 10.2346
lfingers 7.12502
lthumb -170.637 -139.993
rfemur 10.5889 -6.92452 23.0151
rtibia 18.3571
rfoot 31.4283 -31.9392
rtoes 26.5539
lfemur -26.7996 -14.6571 -11.5995
ltibia 23.0057
lfoot 24.1304 -43.72
ltoes 47.2876
438
root -4.75132 18.1909 -3.23714 -165.716 0.135722 -174.35
lowerback -8.84381 9.10446 11.2858
upperback -10.5974 14.2067 2.42272
thorax -4.71526 7.49009 -2.76333
lowerneck -15.8447 -13.6926 -3.17092
upperneck 10.5986 -17.7412 0.149641
head 6.02402 -8.73188 -1.21294
rclavicle -1.5704e-014 -1.19271e-014
rhumerus 89.8361 25.9445 -57.3057
rradius 53.1049
rwrist -10.2208
rhand -46.4927 27.8271
rfingers 7.12502
rthumb -19.2195 -1.24324
lclavicle -1.5704e-014 -1.19271e-014
lhumerus 63.9944 5.82878 47.5225
lradius 49.8513
lwrist 25.8502
lhand -17.4166 10.3608
lfingers 7.12502
lthumb -171.167 -139.844
rfemur 10.3768 -6.90911 22.9724
rtibia 18.8092
rfoot 31.3127 -31.6577
rtoes 25.9916
lfemur -26.7305 -14.5813 -11.6375
ltibia 22.9018
lfoot 24.4225 -43.5125
ltoes 47.5078
439
root -4.75153 18.1918 -3.22196 -165.772 0.248605 -174.478
lowerback -8.69632 9.0642 11.1407
upperback -10.4073 14.0844 2.43714
thorax -4.6191 7.41748 -2.69182
lowerneck -16.0684 -13.611 -3.14316
upperneck 10.495 -17.6166 0.131256
head 6.02075 -8.66881 -1.21936
rclavicle -2.42517e-014 -1.98785e-014
rhumerus 89.3831 26.0337 -57.3601
rradius 52.9641
rwrist -10.4996
rhand -46.0702 27.8508
rfingers 7.12502
rthumb -18.8132 -1.25944
lclavicle -2.42517e-014 -1.98785e-014
lhumerus 63.8361 5.48067 48.2079
lradius 49.7819
lwrist 26.5768
lhand -16.2732 10.667
lfingers 7.12502
lthumb -170.063 -139.588
rfemur 10.1772 -7.04736 22.715
rtibia 19.2734
rfoot 31.2333 -31.2459
rtoes 25.4205
lfemur -26.6437 -14.5689 -11.8053
ltibia 22.7965
lfoot 24.7284 -43.1802
ltoes 47.794
440
root -4.75392 18.1909 -3.20541 -165.805 0.380645 -174.578
lowerback -8.49593 9.05461 11.0732
upperback -10.2631 14.0215 2.41839
thorax -4.57449 7.36834 -2.7015
lowerneck -16.1758 -13.5542 -3.04298
upperneck 10.289 -17.5342 0.0519499
head 5.95442 -8.63192 -1.24362
rclavicle -8.54774e-014 -5.96354e-014
rhumerus 88.8896 26.1179 -57.3718
rradius 52.8284
rwrist -10.5435
rhand -46.074 27.4378
rfingers 7.12502
rthumb -18.8169 -1.67205
lclavicle -8.54774e-014 -5.96354e-014
lhumerus 63.5771 4.78619 48.2961
lradius 49.4755
lwrist 25.9503
lhand -17.2371 10.6889
lfingers 7.12502
lthumb -170.993 -139.523
rfemur 9.95507 -7.15063 22.4836
rtibia 19.7146
rfoot 31.108 -30.9143
rtoes 25.1307
lfemur -26.589 -14.5447 -11.9462
ltibia 22.6907
lfoot 24.8279 -43.0021
ltoes 47.966
441
root -4.75504 18.1923 -3.18965 -165.798 0.471556 -174.542
lowerback -8.32258 9.00649 11.0887
upperback -10.1616 13.9317 2.45332
thorax -4.56775 7.30959 -2.7033
lowerneck -16.1764 -13.4749 -3.08521
upperneck 10.0559 -17.4316 0.206342
head 5.89703 -8.57388 -1.17158
rclavicle -8.0309e-014 -9.14409e-014
rhumerus 88.3565 26.3216 -57.4283
rradius 52.6891
rwrist -10.3718
rhand -46.3085 26.8074
rfingers 7.12502
rthumb -19.0424 -2.28039
lclavicle -8.0309e-014 -9.14409e-014
lhumerus 63.2359 4.25804 48.5823
lradius 49.4013
lwrist 26.1066
lhand -17.1713 10.9108
lfingers 7.12502
lthumb -170.93 -139.304
rfemur 9.69696 -7.08874 22.4944
rtibia 20.1261
rfoot 30.878 -30.8806
rtoes 25.3999
lfemur -26.5759 -14.5082 -11.8942
ltibia 22.5694
lfoot 24.9708 -42.7972
ltoes 48.1713
442
root -4.75256 18.1961 -3.17668 -165.809 0.558323 -174.565
lowerback -8.20661 8.91218 10.9493
upperback -10.0421 13.7727 2.50908
thorax -4.55032 7.22572 -2.60233
lowerneck -16.2098 -13.3691 -3.08985
upperneck 9.88999 -17.3033 0.360492
head 5.86285 -8.50132 -1.10738
rclavicle -3.02153e-014 -3.18055e-015
rhumerus 87.7689 26.6201 -57.5162
rradius 52.6798
rwrist -10.4731
rhand -46.4549 26.566
rfingers 7.12502
rthumb -19.1831 -2.50796
lclavicle -3.02153e-014 -3.18055e-015
lhumerus 62.8078 3.84224 48.8354
lradius 49.384
lwrist 26.4757
lhand -16.5068 10.8338
lfingers 7.12502
lthumb -170.289 -139.41
rfemur 9.4916 -6.94446 22.4882
rtibia 20.4777
rfoot 30.8964 -30.6865
rtoes 24.7903
lfemur -26.524 -14.4961 -11.8917
ltibia 22.4324
lfoot 24.9169 -42.7263
ltoes 48.109
